<svg width="657.9px" height="120.8px" xmlns="http://www.w3.org/2000/svg" viewBox="-78.9375 14.600000000000001 657.875 120.8" style="background: rgba(0, 0, 0, 0)" preserveAspectRatio="xMidYMid"><defs><filter id="editing-vr"><feFlood flood-color="#f00" flood-opacity="0.7" result="c1"></feFlood><feFlood flood-color="#00f" flood-opacity="0.7" result="c3"></feFlood><feComposite operator="in" in="c1" in2="SourceAlpha" result="text-c1"></feComposite><feComposite operator="in" in="c3" in2="SourceAlpha" result="text-c3"></feComposite><feOffset in="text-c1" dx="5" dy="-1" result="text1"></feOffset><feOffset in="text-c3" dx="-5" dy="1" result="text3"></feOffset><feBlend in="SourceGraphic" in2="text1" mode="multiply" result="text4"></feBlend><feBlend in="text4" in2="text3" mode="multiply"></feBlend></filter></defs><g filter="url(#editing-vr)"><g transform="matrix(1.3,0,0,1.8,-48.9,221)"><path d="M 5.6 -66.8 L -8.3 -66.8 L -0.2 -109 L 13.9 -109 L 5.6 -66.8 Z M 61.4 -65.5 L 61.4 -65.5 L 61.4 -65.5 Q 53.6 -65.5 53.6 -71.5 L 53.6 -71.5 L 53.6 -71.5 Q 53.6 -74.2 54.8 -79.2 L 54.8 -79.2 L 54.8 -79.2 Q 55.9 -84.3 56.3 -86.4 L 56.3 -86.4 L 56.3 -86.4 Q 57.2 -91.1 57.2 -92.5 L 57.2 -92.5 L 57.2 -92.5 Q 57.2 -95.8 54.7 -95.8 L 54.7 -95.8 L 54.7 -95.8 Q 53.1 -95.8 51.6 -93.6 L 51.6 -93.6 L 51.6 -93.6 Q 50.1 -91.4 49.4 -87 L 49.4 -87 L 45.4 -66.8 L 32.9 -65.5 L 36.4 -82.9 L 36.4 -82.9 Q 36.9 -85.8 37.4 -89.1 L 37.4 -89.1 L 37.4 -89.1 Q 38 -92.3 38 -92.8 L 38 -92.8 L 38 -92.8 Q 38 -95.8 35.8 -95.8 L 35.8 -95.8 L 35.8 -95.8 Q 34.3 -95.8 32.7 -93.6 L 32.7 -93.6 L 32.7 -93.6 Q 31.1 -91.4 30.2 -87 L 30.2 -87 L 26.3 -66.8 L 13.7 -65.5 L 20.4 -99.4 L 30.9 -100.7 L 29.8 -94.3 L 29.8 -94.3 Q 31.4 -97.7 34.5 -99.2 L 34.5 -99.2 L 34.5 -99.2 Q 37.6 -100.7 42.4 -100.7 L 42.4 -100.7 L 42.4 -100.7 Q 45.1 -100.7 46.9 -99.4 L 46.9 -99.4 L 46.9 -99.4 Q 48.7 -98 49.3 -95.9 L 49.3 -95.9 L 49.3 -95.9 Q 50.4 -98.1 53.2 -99.4 L 53.2 -99.4 L 53.2 -99.4 Q 55.9 -100.7 59.4 -100.7 L 59.4 -100.7 L 59.4 -100.7 Q 62.8 -100.7 64.5 -100 L 64.5 -100 L 64.5 -100 Q 66.2 -99.2 67.2 -98 L 67.2 -98 L 67.2 -98 Q 68.9 -95.8 68.9 -91.7 L 68.9 -91.7 L 68.9 -91.7 Q 68.9 -87.7 67.2 -79.3 L 67.2 -79.3 L 67.2 -79.3 Q 66.3 -75.2 66.3 -73.7 L 66.3 -73.7 L 66.3 -73.7 Q 66.3 -72.2 67.2 -71.3 L 67.2 -71.3 L 67.2 -71.3 Q 68 -70.4 69.3 -70.3 L 69.3 -70.3 L 69.3 -70.3 Q 68.7 -68.1 66.5 -66.8 L 66.5 -66.8 L 66.5 -66.8 Q 64.3 -65.5 61.4 -65.5 Z M 77 -68.7 L 77 -68.7 L 77 -68.7 Q 75.5 -70.4 74.9 -73 L 74.9 -73 L 74.9 -73 Q 74.2 -75.6 74.2 -79.9 L 74.2 -79.9 L 74.2 -79.9 Q 74.2 -84.2 75.7 -88.1 L 75.7 -88.1 L 75.7 -88.1 Q 77.1 -92 79.8 -94.8 L 79.8 -94.8 L 79.8 -94.8 Q 85.3 -100.7 94.4 -100.7 L 94.4 -100.7 L 94.4 -100.7 Q 97.7 -100.7 100 -99.6 L 100 -99.6 L 111 -100.7 L 106.2 -75.8 L 106.2 -75.8 Q 106.1 -75 106.1 -73.6 L 106.1 -73.6 L 106.1 -73.6 Q 106.1 -72.2 106.9 -71.3 L 106.9 -71.3 L 106.9 -71.3 Q 107.8 -70.4 109.1 -70.3 L 109.1 -70.3 L 109.1 -70.3 Q 108.4 -68.1 106.1 -66.8 L 106.1 -66.8 L 106.1 -66.8 Q 103.8 -65.5 101.1 -65.5 L 101.1 -65.5 L 101.1 -65.5 Q 98.5 -65.5 96.7 -66.5 L 96.7 -66.5 L 96.7 -66.5 Q 95 -67.5 94.5 -69.2 L 94.5 -69.2 L 94.5 -69.2 Q 93.4 -67.6 91.3 -66.5 L 91.3 -66.5 L 91.3 -66.5 Q 89.1 -65.5 86.2 -65.5 L 86.2 -65.5 L 86.2 -65.5 Q 83.3 -65.5 80.9 -66.3 L 80.9 -66.3 L 80.9 -66.3 Q 78.5 -67.1 77 -68.7 Z M 90.5 -94.7 L 90.5 -94.7 L 90.5 -94.7 Q 89.8 -93.5 89.2 -91.6 L 89.2 -91.6 L 89.2 -91.6 Q 88.5 -89.6 87.5 -84.4 L 87.5 -84.4 L 87.5 -84.4 Q 86.4 -79.2 86.4 -75.5 L 86.4 -75.5 L 86.4 -75.5 Q 86.4 -71.8 87 -70.7 L 87 -70.7 L 87 -70.7 Q 87.6 -69.6 88.6 -69.6 L 88.6 -69.6 L 88.6 -69.6 Q 90.6 -69.6 92.1 -71.6 L 92.1 -71.6 L 92.1 -71.6 Q 93.6 -73.5 94.2 -77 L 94.2 -77 L 97.6 -95.7 L 97.6 -95.7 Q 96.3 -96.9 94.7 -96.9 L 94.7 -96.9 L 94.7 -96.9 Q 93.1 -96.9 92.2 -96.4 L 92.2 -96.4 L 92.2 -96.4 Q 91.3 -95.9 90.5 -94.7 Z M 118.7 -93.5 L 118.7 -93.5 L 118.7 -93.5 Q 120.9 -96.6 124.2 -98.7 L 124.2 -98.7 L 124.2 -98.7 Q 127.5 -100.7 131.5 -100.7 L 131.5 -100.7 L 131.5 -100.7 Q 135.6 -100.7 137.5 -99.4 L 137.5 -99.4 L 150 -100.7 L 145.7 -76.1 L 145.7 -76.1 Q 143.4 -63.6 138.7 -58.7 L 138.7 -58.7 L 138.7 -58.7 Q 134.2 -54 125.3 -54 L 125.3 -54 L 125.3 -54 Q 118.6 -54 114.8 -56.1 L 114.8 -56.1 L 114.8 -56.1 Q 110.9 -58.2 110.9 -61.7 L 110.9 -61.7 L 110.9 -61.7 Q 110.9 -64.4 112.9 -65.9 L 112.9 -65.9 L 112.9 -65.9 Q 114.9 -67.4 118 -67.4 L 118 -67.4 L 118 -67.4 Q 120.6 -67.4 122.7 -66.2 L 122.7 -66.2 L 122.7 -66.2 Q 123.9 -65.5 124.5 -64.6 L 124.5 -64.6 L 124.5 -64.6 Q 123 -63.3 123 -61.2 L 123 -61.2 L 123 -61.2 Q 123 -58.5 125.6 -58.5 L 125.6 -58.5 L 125.6 -58.5 Q 129.9 -58.5 132.3 -68.6 L 132.3 -68.6 L 132.3 -68.6 Q 133 -71.3 133.6 -74.1 L 133.6 -74.1 L 133.6 -74.1 Q 130.7 -70.6 124.2 -70.6 L 124.2 -70.6 L 124.2 -70.6 Q 119.6 -70.6 117 -72.7 L 117 -72.7 L 117 -72.7 Q 114.4 -74.9 114.4 -80 L 114.4 -80 L 114.4 -80 Q 114.4 -83.2 115.5 -86.9 L 115.5 -86.9 L 115.5 -86.9 Q 116.6 -90.5 118.7 -93.5 Z M 127 -79.9 L 127 -79.9 L 127 -79.9 Q 127 -75.5 129.3 -75.5 L 129.3 -75.5 L 129.3 -75.5 Q 130.8 -75.5 132.3 -77.2 L 132.3 -77.2 L 132.3 -77.2 Q 133.4 -78.5 133.9 -80.5 L 133.9 -80.5 L 137.2 -96.9 L 137.2 -96.9 Q 136.8 -97 136.5 -97.1 L 136.5 -97.1 L 136.5 -97.1 Q 135.9 -97.4 135 -97.4 L 135 -97.4 L 135 -97.4 Q 131.1 -97.4 128.8 -91 L 128.8 -91 L 128.8 -91 Q 127 -86 127 -79.9 Z M 178.4 -77.6 L 178.4 -77.6 L 178.4 -77.6 Q 180 -76.5 180 -74.1 L 180 -74.1 L 180 -74.1 Q 180 -71.7 178.8 -70.2 L 178.8 -70.2 L 178.8 -70.2 Q 177.6 -68.7 175.6 -67.6 L 175.6 -67.6 L 175.6 -67.6 Q 171.5 -65.5 167.1 -65.5 L 167.1 -65.5 L 167.1 -65.5 Q 162.7 -65.5 160.1 -66.5 L 160.1 -66.5 L 160.1 -66.5 Q 157.5 -67.4 155.8 -69.2 L 155.8 -69.2 L 155.8 -69.2 Q 152.4 -72.6 152.4 -78.8 L 152.4 -78.8 L 152.4 -78.8 Q 152.4 -88.5 157.6 -94.4 L 157.6 -94.4 L 157.6 -94.4 Q 163.3 -100.7 173.1 -100.7 L 173.1 -100.7 L 173.1 -100.7 Q 179.1 -100.7 182.2 -98.2 L 182.2 -98.2 L 182.2 -98.2 Q 184.4 -96.2 184.4 -93.1 L 184.4 -93.1 L 184.4 -93.1 Q 184.4 -81.8 164.9 -81.8 L 164.9 -81.8 L 164.9 -81.8 Q 164.7 -80.2 164.7 -78.8 L 164.7 -78.8 L 164.7 -78.8 Q 164.7 -75.8 166 -74.7 L 166 -74.7 L 166 -74.7 Q 167.3 -73.6 169.7 -73.6 L 169.7 -73.6 L 169.7 -73.6 Q 172.2 -73.6 174.8 -74.7 L 174.8 -74.7 L 174.8 -74.7 Q 177.4 -75.8 178.4 -77.6 Z M 165.4 -84.6 L 165.4 -84.6 L 165.4 -84.6 Q 169.9 -84.6 172.6 -87.4 L 172.6 -87.4 L 172.6 -87.4 Q 175.2 -90.1 175.2 -94.4 L 175.2 -94.4 L 175.2 -94.4 Q 175.2 -95.9 174.6 -96.7 L 174.6 -96.7 L 174.6 -96.7 Q 174.1 -97.5 173 -97.5 L 173 -97.5 L 173 -97.5 Q 171.9 -97.5 171 -97 L 171 -97 L 171 -97 Q 170.1 -96.6 169.1 -95.2 L 169.1 -95.2 L 169.1 -95.2 Q 166.7 -92 165.4 -84.6 Z M 205.7 -89.3 L 205.7 -89.3 L 205.7 -89.3 Q 206.6 -91.6 206.6 -93.7 L 206.6 -93.7 L 206.6 -93.7 Q 206.6 -97.5 203.5 -97.5 L 203.5 -97.5 L 203.5 -97.5 Q 201.9 -97.5 200.6 -96 L 200.6 -96 L 200.6 -96 Q 199.3 -94.6 199.3 -92.8 L 199.3 -92.8 L 199.3 -92.8 Q 199.3 -91.5 200.3 -90.5 L 200.3 -90.5 L 200.3 -90.5 Q 201.8 -89.1 205.6 -86.8 L 205.6 -86.8 L 205.6 -86.8 Q 209.4 -84.5 210.8 -82.6 L 210.8 -82.6 L 210.8 -82.6 Q 212.2 -80.7 212.2 -78.1 L 212.2 -78.1 L 212.2 -78.1 Q 212.2 -75.5 211 -73.1 L 211 -73.1 L 211 -73.1 Q 209.7 -70.8 207.5 -69.1 L 207.5 -69.1 L 207.5 -69.1 Q 202.7 -65.5 195 -65.5 L 195 -65.5 L 195 -65.5 Q 190.9 -65.5 187.7 -67.7 L 187.7 -67.7 L 187.7 -67.7 Q 184.5 -69.8 184.5 -72.3 L 184.5 -72.3 L 184.5 -72.3 Q 184.5 -74.8 186.3 -76.3 L 186.3 -76.3 L 186.3 -76.3 Q 188.1 -77.7 190.8 -77.7 L 190.8 -77.7 L 190.8 -77.7 Q 193.5 -77.7 195.1 -76.7 L 195.1 -76.7 L 195.1 -76.7 Q 194.3 -74.6 194.3 -73.2 L 194.3 -73.2 L 194.3 -73.2 Q 194.3 -69 197.9 -69 L 197.9 -69 L 197.9 -69 Q 199.4 -69 200.5 -69.9 L 200.5 -69.9 L 200.5 -69.9 Q 201.5 -70.9 201.5 -72.6 L 201.5 -72.6 L 201.5 -72.6 Q 201.5 -75.8 196 -79.3 L 196 -79.3 L 196 -79.3 Q 191.5 -82.2 190.5 -83.4 L 190.5 -83.4 L 190.5 -83.4 Q 188.7 -85.4 188.7 -88 L 188.7 -88 L 188.7 -88 Q 188.7 -90.5 190 -93 L 190 -93 L 190 -93 Q 191.2 -95.4 193.4 -97.1 L 193.4 -97.1 L 193.4 -97.1 Q 198.1 -100.7 206.2 -100.7 L 206.2 -100.7 L 206.2 -100.7 Q 210.4 -100.7 212.8 -99.1 L 212.8 -99.1 L 212.8 -99.1 Q 215.3 -97.4 215.3 -94.6 L 215.3 -94.6 L 215.3 -94.6 Q 215.3 -91.8 213.6 -90.2 L 213.6 -90.2 L 213.6 -90.2 Q 211.9 -88.6 208.8 -88.6 L 208.8 -88.6 L 208.8 -88.6 Q 206.7 -88.6 205.7 -89.3 Z M 256.8 -87.4 L 269.7 -88.6 L 269.7 -88.6 Q 265.1 -78.4 265.1 -66.7 L 265.1 -66.7 L 265.1 -66.7 Q 263.4 -65.5 260.8 -65.5 L 260.8 -65.5 L 260.8 -65.5 Q 258.3 -65.5 256.7 -66.7 L 256.7 -66.7 L 256.7 -66.7 Q 255.1 -67.9 254.8 -69.1 L 254.8 -69.1 L 254.8 -69.1 Q 253.2 -67.4 250.6 -66.5 L 250.6 -66.5 L 250.6 -66.5 Q 248 -65.5 245.3 -65.5 L 245.3 -65.5 L 245.3 -65.5 Q 242.5 -65.5 240.1 -66.4 L 240.1 -66.4 L 240.1 -66.4 Q 237.7 -67.3 235.8 -69.3 L 235.8 -69.3 L 235.8 -69.3 Q 231.8 -73.6 231.8 -81.9 L 231.8 -81.9 L 231.8 -81.9 Q 231.8 -94.7 238.6 -102.4 L 238.6 -102.4 L 238.6 -102.4 Q 245.6 -110.3 258.1 -110.3 L 258.1 -110.3 L 258.1 -110.3 Q 266.8 -110.3 269.8 -105.8 L 269.8 -105.8 L 269.8 -105.8 Q 270.8 -104.4 270.8 -102.7 L 270.8 -102.7 L 270.8 -102.7 Q 270.8 -101 270.1 -99.6 L 270.1 -99.6 L 270.1 -99.6 Q 269.3 -98.2 268.2 -97 L 268.2 -97 L 268.2 -97 Q 265.4 -94.4 262 -94.4 L 262 -94.4 L 262 -94.4 Q 260.7 -94.4 259.4 -94.9 L 259.4 -94.9 L 259.4 -94.9 Q 259.7 -96.8 259.7 -99.1 L 259.7 -99.1 L 259.7 -99.1 Q 259.7 -101.3 259.5 -102.3 L 259.5 -102.3 L 259.5 -102.3 Q 259.3 -103.3 259 -104.2 L 259 -104.2 L 259 -104.2 Q 258.1 -105.9 256.3 -105.9 L 256.3 -105.9 L 256.3 -105.9 Q 254.5 -105.9 252.5 -103.9 L 252.5 -103.9 L 252.5 -103.9 Q 250.4 -102 248.8 -98.8 L 248.8 -98.8 L 248.8 -98.8 Q 245.3 -91.6 245.3 -83 L 245.3 -83 L 245.3 -83 Q 245.3 -79 246.9 -76.2 L 246.9 -76.2 L 246.9 -76.2 Q 248.5 -73.1 251.5 -73.1 L 251.5 -73.1 L 251.5 -73.1 Q 252.5 -73.1 253.4 -73.6 L 253.4 -73.6 L 253.4 -73.6 Q 254.3 -74.2 254.7 -74.5 L 254.7 -74.5 L 256.8 -87.4 Z M 275.6 -68.7 L 275.6 -68.7 L 275.6 -68.7 Q 274.1 -70.4 273.4 -73 L 273.4 -73 L 273.4 -73 Q 272.8 -75.6 272.8 -79.9 L 272.8 -79.9 L 272.8 -79.9 Q 272.8 -84.2 274.2 -88.1 L 274.2 -88.1 L 274.2 -88.1 Q 275.7 -92 278.4 -94.8 L 278.4 -94.8 L 278.4 -94.8 Q 283.9 -100.7 293 -100.7 L 293 -100.7 L 293 -100.7 Q 296.3 -100.7 298.6 -99.6 L 298.6 -99.6 L 309.6 -100.7 L 304.8 -75.8 L 304.8 -75.8 Q 304.6 -75 304.6 -73.6 L 304.6 -73.6 L 304.6 -73.6 Q 304.6 -72.2 305.5 -71.3 L 305.5 -71.3 L 305.5 -71.3 Q 306.4 -70.4 307.7 -70.3 L 307.7 -70.3 L 307.7 -70.3 Q 307 -68.1 304.7 -66.8 L 304.7 -66.8 L 304.7 -66.8 Q 302.3 -65.5 299.7 -65.5 L 299.7 -65.5 L 299.7 -65.5 Q 297.1 -65.5 295.3 -66.5 L 295.3 -66.5 L 295.3 -66.5 Q 293.6 -67.5 293.1 -69.2 L 293.1 -69.2 L 293.1 -69.2 Q 292 -67.6 289.9 -66.5 L 289.9 -66.5 L 289.9 -66.5 Q 287.7 -65.5 284.8 -65.5 L 284.8 -65.5 L 284.8 -65.5 Q 281.9 -65.5 279.5 -66.3 L 279.5 -66.3 L 279.5 -66.3 Q 277.1 -67.1 275.6 -68.7 Z M 289.1 -94.7 L 289.1 -94.7 L 289.1 -94.7 Q 288.4 -93.5 287.8 -91.6 L 287.8 -91.6 L 287.8 -91.6 Q 287.1 -89.6 286.1 -84.4 L 286.1 -84.4 L 286.1 -84.4 Q 285 -79.2 285 -75.5 L 285 -75.5 L 285 -75.5 Q 285 -71.8 285.6 -70.7 L 285.6 -70.7 L 285.6 -70.7 Q 286.2 -69.6 287.2 -69.6 L 287.2 -69.6 L 287.2 -69.6 Q 289.2 -69.6 290.7 -71.6 L 290.7 -71.6 L 290.7 -71.6 Q 292.2 -73.5 292.8 -77 L 292.8 -77 L 296.2 -95.7 L 296.2 -95.7 Q 294.9 -96.9 293.3 -96.9 L 293.3 -96.9 L 293.3 -96.9 Q 291.7 -96.9 290.8 -96.4 L 290.8 -96.4 L 290.8 -96.4 Q 289.9 -95.9 289.1 -94.7 Z M 328.3 -70.3 L 328.3 -70.3 L 328.3 -70.3 Q 326.3 -65.5 320 -65.5 L 320 -65.5 L 320 -65.5 Q 316.8 -65.5 314.8 -67.8 L 314.8 -67.8 L 314.8 -67.8 Q 313.1 -69.6 313.1 -71.7 L 313.1 -71.7 L 313.1 -71.7 Q 313.1 -76.5 315.3 -87 L 315.3 -87 L 320 -111.6 L 333 -112.9 L 326.8 -80.5 L 326.8 -80.5 Q 325.7 -75.8 325.7 -74.1 L 325.7 -74.1 L 325.7 -74.1 Q 325.7 -70.4 328.3 -70.3 Z M 349.1 -70.3 L 349.1 -70.3 L 349.1 -70.3 Q 347.1 -65.5 340.7 -65.5 L 340.7 -65.5 L 340.7 -65.5 Q 337.5 -65.5 335.5 -67.8 L 335.5 -67.8 L 335.5 -67.8 Q 333.8 -69.6 333.8 -71.7 L 333.8 -71.7 L 333.8 -71.7 Q 333.8 -76.5 336.1 -87 L 336.1 -87 L 340.7 -111.6 L 353.7 -112.9 L 347.5 -80.5 L 347.5 -80.5 Q 346.4 -75.8 346.4 -74.1 L 346.4 -74.1 L 346.4 -74.1 Q 346.4 -70.4 349.1 -70.3 Z M 380.4 -77.6 L 380.4 -77.6 L 380.4 -77.6 Q 382 -76.5 382 -74.1 L 382 -74.1 L 382 -74.1 Q 382 -71.7 380.8 -70.2 L 380.8 -70.2 L 380.8 -70.2 Q 379.6 -68.7 377.6 -67.6 L 377.6 -67.6 L 377.6 -67.6 Q 373.5 -65.5 369.1 -65.5 L 369.1 -65.5 L 369.1 -65.5 Q 364.7 -65.5 362.1 -66.5 L 362.1 -66.5 L 362.1 -66.5 Q 359.5 -67.4 357.8 -69.2 L 357.8 -69.2 L 357.8 -69.2 Q 354.4 -72.6 354.4 -78.8 L 354.4 -78.8 L 354.4 -78.8 Q 354.4 -88.5 359.6 -94.4 L 359.6 -94.4 L 359.6 -94.4 Q 365.3 -100.7 375 -100.7 L 375 -100.7 L 375 -100.7 Q 381.1 -100.7 384.1 -98.2 L 384.1 -98.2 L 384.1 -98.2 Q 386.4 -96.2 386.4 -93.1 L 386.4 -93.1 L 386.4 -93.1 Q 386.4 -81.8 366.9 -81.8 L 366.9 -81.8 L 366.9 -81.8 Q 366.7 -80.2 366.7 -78.8 L 366.7 -78.8 L 366.7 -78.8 Q 366.7 -75.8 368 -74.7 L 368 -74.7 L 368 -74.7 Q 369.3 -73.6 371.7 -73.6 L 371.7 -73.6 L 371.7 -73.6 Q 374.2 -73.6 376.7 -74.7 L 376.7 -74.7 L 376.7 -74.7 Q 379.3 -75.8 380.4 -77.6 Z M 367.4 -84.6 L 367.4 -84.6 L 367.4 -84.6 Q 371.9 -84.6 374.5 -87.4 L 374.5 -87.4 L 374.5 -87.4 Q 377.2 -90.1 377.2 -94.4 L 377.2 -94.4 L 377.2 -94.4 Q 377.2 -95.9 376.6 -96.7 L 376.6 -96.7 L 376.6 -96.7 Q 376.1 -97.5 375 -97.5 L 375 -97.5 L 375 -97.5 Q 373.9 -97.5 373 -97 L 373 -97 L 373 -97 Q 372 -96.6 371.1 -95.2 L 371.1 -95.2 L 371.1 -95.2 Q 368.7 -92 367.4 -84.6 Z M 408.6 -84.8 L 408.6 -84.8 L 408.6 -84.8 Q 410.9 -88.9 410.9 -93 L 410.9 -93 L 410.9 -93 Q 410.9 -95.8 408.9 -95.8 L 408.9 -95.8 L 408.9 -95.8 Q 407.4 -95.8 405.8 -93.2 L 405.8 -93.2 L 405.8 -93.2 Q 404.1 -90.5 403.6 -87.1 L 403.6 -87.1 L 400.3 -66.8 L 387 -65.5 L 393.5 -99.4 L 404.1 -100.7 L 403 -94.3 L 403 -94.3 Q 406.1 -100.7 413.1 -100.7 L 413.1 -100.7 L 413.1 -100.7 Q 416.8 -100.7 418.9 -98.8 L 418.9 -98.8 L 418.9 -98.8 Q 420.9 -96.9 420.9 -92.9 L 420.9 -92.9 L 420.9 -92.9 Q 420.9 -89 418.3 -86.5 L 418.3 -86.5 L 418.3 -86.5 Q 415.7 -84 411.3 -84 L 411.3 -84 L 411.3 -84 Q 409.4 -84 408.6 -84.8 Z M 442.2 -74 L 442.2 -74 L 442.2 -74 Q 438.9 -70.6 432.8 -70.6 L 432.8 -70.6 L 432.8 -70.6 Q 425.2 -70.6 423.6 -76.1 L 423.6 -76.1 L 423.6 -76.1 Q 423.1 -77.8 423.1 -79.7 L 423.1 -79.7 L 423.1 -79.7 Q 423.1 -81.5 423.5 -83.4 L 423.5 -83.4 L 426.5 -99.4 L 439.5 -100.7 L 436 -82.1 L 436 -82.1 Q 435.8 -81.3 435.7 -80.4 L 435.7 -80.4 L 435.7 -80.4 Q 435.5 -79.5 435.5 -78.5 L 435.5 -78.5 L 435.5 -78.5 Q 435.5 -77.6 435.8 -77 L 435.8 -77 L 435.8 -77 Q 436.1 -76.4 436.6 -76 L 436.6 -76 L 436.6 -76 Q 437.3 -75.5 438.7 -75.5 L 438.7 -75.5 L 438.7 -75.5 Q 440.1 -75.5 441.3 -77.2 L 441.3 -77.2 L 441.3 -77.2 Q 442.4 -78.8 443 -81.7 L 443 -81.7 L 446.5 -99.4 L 459.1 -100.7 L 454.3 -75.6 L 454.3 -75.6 Q 452 -63.3 447.1 -58.4 L 447.1 -58.4 L 447.1 -58.4 Q 444.6 -55.9 441.4 -54.9 L 441.4 -54.9 L 441.4 -54.9 Q 438.2 -53.9 434 -53.9 L 434 -53.9 L 434 -53.9 Q 427.3 -53.9 423.4 -56 L 423.4 -56 L 423.4 -56 Q 419.6 -58.2 419.6 -61.7 L 419.6 -61.7 L 419.6 -61.7 Q 419.6 -64.3 421.6 -65.8 L 421.6 -65.8 L 421.6 -65.8 Q 423.6 -67.3 426.6 -67.3 L 426.6 -67.3 L 426.6 -67.3 Q 429.3 -67.3 431.4 -66.2 L 431.4 -66.2 L 431.4 -66.2 Q 432.6 -65.5 433.2 -64.6 L 433.2 -64.6 L 433.2 -64.6 Q 431.7 -63.3 431.7 -61.2 L 431.7 -61.2 L 431.7 -61.2 Q 431.7 -58.3 434.2 -58.3 L 434.2 -58.3 L 434.2 -58.3 Q 438.5 -58.3 440.9 -68.1 L 440.9 -68.1 L 440.9 -68.1 Q 441.6 -71 442.2 -74 Z" fill="#444444"></path></g></g><style>text {
  font-size: 64px;
  font-family: Arial Black;
  dominant-baseline: central;
  text-anchor: middle;
}</style></svg>